Coordinates
version=1
nRows=26
nColumns=22
inDegrees=yes

Units are S.I. units (second, meters, Newtons, ...)
If the header above contains a line with 'inDegrees', this indicates whether rotational values are in degrees (yes) or radians (no).

endheader
time	pelvis_tilt	pelvis_list	pelvis_rotation	pelvis_tx	pelvis_ty	pelvis_tz	hip_flexion_r	hip_adduction_r	hip_rotation_r	knee_angle_r	ankle_angle_r	subtalar_angle_r	hip_flexion_l	hip_adduction_l	hip_rotation_l	knee_angle_l	ankle_angle_l	subtalar_angle_l	lumbar_extension	lumbar_bending	lumbar_rotation
      0.01000000	      1.24685524	     -2.52749755	     -0.68670918	      0.14911270	      0.93390902	      1.16363807	     -4.49220671	      0.96526590	     -2.18968207	     -6.40828817	      5.54195617	      7.34415140	     -4.50546129	     -6.36436492	     -7.91433507	     -7.30424201	      7.73618935	      1.76176851	     -4.15774087	     -0.24118820	     -1.08793522
      0.02000000	      1.23261499	     -2.53011362	     -0.68835818	      0.14923624	      0.93388934	      1.16353832	     -4.48877415	      0.96200705	     -2.19062311	     -6.40156511	      5.54185306	      7.34475416	     -4.50132828	     -6.35913062	     -7.91504717	     -7.29976749	      7.73757739	      1.76124463	     -4.17175434	     -0.23770860	     -1.08768042
      0.03000000	      1.19156814	     -2.51689796	     -0.70096659	      0.14938503	      0.93383884	      1.16344398	     -4.46987737	      0.94073777	     -2.16801946	     -6.36903523	      5.52670174	      7.36267023	     -4.47459609	     -6.33467060	     -7.91363561	     -7.28952006	      7.74332780	      1.74245049	     -4.15515745	     -0.25460136	     -1.08107212
      0.04000000	      1.17264268	     -2.52131267	     -0.71273522	      0.14950991	      0.93381531	      1.16336641	     -4.46308964	      0.93905047	     -2.17349414	     -6.35718058	      5.52797552	      7.36339081	     -4.46793600	     -6.33203134	     -7.91510893	     -7.28457764	      7.74389486	      1.74193824	     -4.17755478	     -0.25519563	     -1.08042521
      0.05000000	      1.13453087	     -2.51885144	     -0.74135004	      0.14966800	      0.93376694	      1.16332007	     -4.44609028	      0.92974232	     -2.19279777	     -6.32378525	      5.52435124	      7.37173470	     -4.44541601	     -6.32181122	     -7.94590110	     -7.28044334	      7.74836018	      1.73634885	     -4.17307357	     -0.26885196	     -1.04209168
      0.06000000	      1.11309991	     -2.52458079	     -0.76846518	      0.14978185	      0.93373794	      1.16328492	     -4.43577927	      0.92961405	     -2.20091188	     -6.30950309	      5.52498690	      7.37257061	     -4.43717137	     -6.32149633	     -7.94659036	     -7.27742219	      7.74913907	      1.73604604	     -4.20034594	     -0.27335949	     -1.04359912
      0.07000000	      1.04624723	     -2.52641704	     -0.85355165	      0.14992063	      0.93364991	      1.16333489	     -4.35934654	      0.92154011	     -2.19475269	     -6.32000061	      5.50267186	      7.39239291	     -4.38077748	     -6.31667302	     -8.06136855	     -7.30040454	      7.77015487	      1.73132227	     -4.16580057	     -0.28741844	     -0.95498849
      0.08000000	      1.01146955	     -2.53702866	     -0.89332852	      0.15008081	      0.93360051	      1.16333600	     -4.34620954	      0.92673988	     -2.21918959	     -6.28548800	      5.51108185	      7.39665044	     -4.36147213	     -6.32368288	     -8.07583930	     -7.30340436	      7.77689407	      1.73182643	     -4.16923618	     -0.29431477	     -0.91809775
      0.09000000	      0.94004998	     -2.55284473	     -0.97301263	      0.15022313	      0.93349876	      1.16340217	     -4.26909999	      0.93649420	     -2.19323350	     -6.29110655	      5.50912926	      7.41095737	     -4.29370144	     -6.33794745	     -8.16595802	     -7.33941272	      7.81010477	      1.74088237	     -4.13012729	     -0.29643540	     -0.84792059
      0.10000000	      0.90930750	     -2.56132127	     -1.01591601	      0.15042721	      0.93345464	      1.16340915	     -4.25870210	      0.93948524	     -2.22720137	     -6.26482073	      5.50437995	      7.41212700	     -4.28367524	     -6.34198314	     -8.18603983	     -7.33953501	      7.82071979	      1.74276973	     -4.13080645	     -0.30735356	     -0.81420530
      0.11000000	      0.87375021	     -2.57033598	     -1.06584549	      0.15064392	      0.93340346	      1.16342069	     -4.24021585	      0.94229953	     -2.24376427	     -6.24459583	      5.49605231	      7.41419209	     -4.26479273	     -6.34700247	     -8.22473891	     -7.35214739	      7.83819202	      1.74566561	     -4.12366320	     -0.31718534	     -0.76947737
      0.12000000	      0.85461900	     -2.57798477	     -1.09929059	      0.15086844	      0.93337485	      1.16340015	     -4.23707116	      0.94377507	     -2.25018637	     -6.23524592	      5.49640306	      7.41459983	     -4.26381308	     -6.34932159	     -8.22317641	     -7.35862107	      7.83957083	      1.74590107	     -4.13601285	     -0.32526821	     -0.77351630
      0.13000000	      0.78323547	     -2.58784618	     -1.17367953	      0.15111931	      0.93326984	      1.16342553	     -4.17623867	      0.94567226	     -2.19371034	     -6.22551909	      5.47656201	      7.42204927	     -4.18785881	     -6.35692446	     -8.33288865	     -7.42310836	      7.89828051	      1.75340625	     -4.07849004	     -0.32806489	     -0.71495494
      0.14000000	      0.76479751	     -2.59492984	     -1.20014238	      0.15139672	      0.93323790	      1.16337741	     -4.17745766	      0.94597718	     -2.19987906	     -6.21780955	      5.47851483	      7.42237939	     -4.18860854	     -6.35734139	     -8.32830114	     -7.43017959	      7.89840674	      1.75352231	     -4.08641060	     -0.33283606	     -0.72057369
      0.15000000	      0.74613392	     -2.60082500	     -1.22773410	      0.15171069	      0.93320094	      1.16331845	     -4.18090247	      0.94422363	     -2.20439971	     -6.20875262	      5.48068793	      7.42276963	     -4.19006715	     -6.35494237	     -8.32514414	     -7.44228583	      7.90045433	      1.75376205	     -4.08844517	     -0.33482357	     -0.72935411
      0.16000000	      0.67985846	     -2.60207067	     -1.23966762	      0.15200159	      0.93308601	      1.16323958	     -4.14451365	      0.94047386	     -2.16743660	     -6.17716248	      5.48478603	      7.42892093	     -4.08763908	     -6.35697228	     -8.35673793	     -7.54941457	      7.97223502	      1.75339830	     -4.03525075	     -0.33878098	     -0.76532521
      0.17000000	      0.66213457	     -2.60741045	     -1.26667719	      0.15233475	      0.93304591	      1.16318241	     -4.14737024	      0.93834118	     -2.17037637	     -6.17395012	      5.48628567	      7.42910999	     -4.09066728	     -6.35386249	     -8.35401779	     -7.55922208	      7.97340926	      1.75334477	     -4.03856805	     -0.33808405	     -0.77909286
      0.18000000	      0.63329577	     -2.60194237	     -1.27823774	      0.15264765	      0.93298428	      1.16309304	     -4.14228717	      0.92511821	     -2.13036598	     -6.16440572	      5.50099132	      7.43111058	     -4.05095076	     -6.34274685	     -8.37569967	     -7.62014621	      8.00460603	      1.75149948	     -4.02999575	     -0.34055433	     -0.85348826
      0.19000000	      0.55667532	     -2.61158216	     -1.29957517	      0.15292212	      0.93285069	      1.16305425	     -4.07158938	      0.93200166	     -2.11363541	     -6.17355693	      5.51900363	      7.43377096	     -3.93121601	     -6.35658341	     -8.41266100	     -7.74036192	      8.08894322	      1.73504310	     -3.96955313	     -0.33270681	     -0.87768625
      0.20000000	      0.53870684	     -2.61385941	     -1.32581720	      0.15318279	      0.93281465	      1.16301795	     -4.05683948	      0.92875919	     -2.09005756	     -6.19523510	      5.52120169	      7.43266362	     -3.90644940	     -6.35400022	     -8.39707203	     -7.79374482	      8.09082093	      1.73171753	     -3.98614995	     -0.33265861	     -0.88650232
      0.21000000	      0.51063188	     -2.61581944	     -1.35663229	      0.15342744	      0.93276123	      1.16299380	     -4.02930437	      0.92552311	     -2.05494180	     -6.21749123	      5.53414566	      7.42975701	     -3.85506675	     -6.35471562	     -8.41355346	     -7.87943066	      8.12112408	      1.72387904	     -3.99265167	     -0.33171853	     -0.90444972
      0.22000000	      0.43336542	     -2.63520835	     -1.40898352	      0.15367681	      0.93263458	      1.16303131	     -3.93965541	      0.94440459	     -2.02237550	     -6.25403749	      5.55821317	      7.41542078	     -3.74623606	     -6.37984360	     -8.48748780	     -7.98555055	      8.20080756	      1.69893006	     -3.93754116	     -0.31370225	     -0.88939983
      0.23000000	      0.41712791	     -2.64048125	     -1.44444779	      0.15390660	      0.93260959	      1.16302993	     -3.91915425	      0.94593461	     -1.99718672	     -6.28305510	      5.55547433	      7.41022043	     -3.72547255	     -6.38147693	     -8.47554825	     -8.03467755	      8.20269118	      1.69518211	     -3.96443073	     -0.31132827	     -0.89140787
      0.24000000	      0.37413254	     -2.66261162	     -1.51163005	      0.15415651	      0.93253392	      1.16308772	     -3.86510590	      0.96590576	     -1.94203108	     -6.32069442	      5.57430127	      7.38954983	     -3.66493037	     -6.40661103	     -8.55862909	     -8.12525965	      8.26354304	      1.67984826	     -3.95153393	     -0.28991782	     -0.85951438
      0.25000000	      0.36295165	     -2.67062546	     -1.55529491	      0.15440722	      0.93251275	      1.16309458	     -3.84813588	      0.96925441	     -1.90906699	     -6.35518725	      5.56983987	      7.38279874	     -3.65694029	     -6.41008313	     -8.55601761	     -8.16763499	      8.27102418	      1.67731425	     -3.97951311	     -0.28104755	     -0.85505644
      0.26000000	      0.34140429	     -2.69716114	     -1.64226755	      0.15469597	      0.93246511	      1.16318316	     -3.82002631	      0.99252652	     -1.82337744	     -6.38933880	      5.58773331	      7.35814382	     -3.64325812	     -6.43678425	     -8.66357473	     -8.22602752	      8.33100231	      1.66854018	     -3.98657454	     -0.25481033	     -0.79274203
